SplineFontDB: 3.2
FontName: TJPBorders-Medium
FullName: TJP Borders Medium
FamilyName: TJP Borders Medium
Weight: Medium
Copyright: Copyright (c) 2006-2008,2022 Tjeerd J. Pinkert\n(t.j.pinkert@alumnus.utwente.nl)

StartChar: d
Encoding: 100 100 0
Width: 1200
Flags: HMW
TeX: 100 0
LayerCount: 2
Fore
SplineSet
10 945 m 4
 35 945 55 970 55 1000 c 4
 85 1000 l 5
 85 953 57 920 35 920 c 13
 35 500 l 29
 10 500 l 29
 10 945 l 4
71 487 m 5
 43 498 l 5
 132 721 l 5
 160 710 l 5
 71 487 l 5
118 426 m 5
 106 453 l 5
 327 547 l 5
 339 520 l 5
 118 426 l 5
71 313 m 5
 160 90 l 5
 132 79 l 5
 43 302 l 5
 71 313 l 5
118 374 m 5
 339 280 l 5
 327 253 l 5
 106 347 l 5
 118 374 l 5
80 318 m 5
 101 339 l 5
 382 55 l 5
 361 34 l 5
 80 318 l 5
80 482 m 5
 361 766 l 5
 382 745 l 5
 101 461 l 5
 80 482 l 5
35 425 m 4
 49 425 60 414 60 400 c 4
 60 386 49 375 35 375 c 4
 21 375 10 386 10 400 c 4
 10 414 21 425 35 425 c 4
85 1000 m 1029
95 -200 m 5
 253 -146 357 -124 423 -124 c 4
 499 -124 525 -154 525 -200 c 5
 505 -200 l 5
 505 -171 476 -156 419 -156 c 4
 362 -156 279 -171 170 -200 c 5
 95 -200 l 5
10 -145 m 4
 10 300 l 29
 35 300 l 29
 35 -120 l 21
 57 -120 85 -153 85 -200 c 5
 55 -200 l 4
 55 -170 35 -145 10 -145 c 4
95 1000 m 5
 170 1000 l 5
 279 971 362 956 419 956 c 4
 476 956 505 971 505 1000 c 5
 525 1000 l 5
 525 954 499 924 423 924 c 4
 357 924 253 946 95 1000 c 5
120 415 m 5
 520 415 l 5
 520 385 l 5
 120 385 l 5
 120 415 l 5
EndSplineSet
Validated: 1
EndChar

StartChar: a
Encoding: 97 97 1
Width: 1200
Flags: HMW
TeX: 97 0
LayerCount: 2
Fore
SplineSet
1190 945 m 4
 1190 500 l 29
 1165 500 l 29
 1165 920 l 21
 1143 920 1115 953 1115 1000 c 5
 1145 1000 l 4
 1145 970 1165 945 1190 945 c 4
1129 487 m 5
 1040 710 l 5
 1068 721 l 5
 1157 498 l 5
 1129 487 l 5
1082 426 m 5
 861 520 l 5
 873 547 l 5
 1094 453 l 5
 1082 426 l 5
1129 313 m 5
 1157 302 l 5
 1068 79 l 5
 1040 90 l 5
 1129 313 l 5
1082 374 m 5
 1094 347 l 5
 873 253 l 5
 861 280 l 5
 1082 374 l 5
1120 318 m 5
 839 34 l 5
 818 55 l 5
 1099 339 l 5
 1120 318 l 5
1120 482 m 5
 1099 461 l 5
 818 745 l 5
 839 766 l 5
 1120 482 l 5
1165 425 m 4
 1179 425 1190 414 1190 400 c 4
 1190 386 1179 375 1165 375 c 4
 1151 375 1140 386 1140 400 c 4
 1140 414 1151 425 1165 425 c 4
1115 1000 m 1029
1105 -200 m 5
 1030 -200 l 5
 921 -171 838 -156 781 -156 c 4
 724 -156 695 -171 695 -200 c 5
 675 -200 l 5
 675 -154 701 -124 777 -124 c 4
 843 -124 947 -146 1105 -200 c 5
1190 -145 m 4
 1165 -145 1145 -170 1145 -200 c 4
 1115 -200 l 5
 1115 -153 1143 -120 1165 -120 c 13
 1165 300 l 29
 1190 300 l 29
 1190 -145 l 4
1105 1000 m 5
 947 946 843 924 777 924 c 4
 701 924 675 954 675 1000 c 5
 695 1000 l 5
 695 971 724 956 781 956 c 4
 838 956 921 971 1030 1000 c 5
 1105 1000 l 5
1080 415 m 5
 1080 385 l 5
 680 385 l 5
 680 415 l 5
 1080 415 l 5
EndSplineSet
Validated: 1
EndChar

StartChar: w
Encoding: 119 119 2
Width: 1200
Flags: HMW
TeX: 119 0
LayerCount: 2
Fore
SplineSet
55 -190 m 4
 55 -165 30 -145 0 -145 c 4
 0 -115 l 5
 47 -115 80 -143 80 -165 c 13
 500 -165 l 29
 500 -190 l 29
 55 -190 l 4
513 -129 m 5
 502 -157 l 5
 279 -68 l 5
 290 -40 l 5
 513 -129 l 5
574 -82 m 5
 547 -94 l 5
 453 127 l 5
 480 139 l 5
 574 -82 l 5
687 -129 m 5
 910 -40 l 5
 921 -68 l 5
 698 -157 l 5
 687 -129 l 5
626 -82 m 5
 720 139 l 5
 747 127 l 5
 653 -94 l 5
 626 -82 l 5
682 -120 m 5
 661 -99 l 5
 945 182 l 5
 966 161 l 5
 682 -120 l 5
518 -120 m 5
 234 161 l 5
 255 182 l 5
 539 -99 l 5
 518 -120 l 5
575 -165 m 4
 575 -151 586 -140 600 -140 c 4
 614 -140 625 -151 625 -165 c 4
 625 -179 614 -190 600 -190 c 4
 586 -190 575 -179 575 -165 c 4
0 -115 m 1029
1200 -105 m 5
 1146 53 1124 157 1124 223 c 4
 1124 299 1154 325 1200 325 c 5
 1200 305 l 5
 1171 305 1156 276 1156 219 c 4
 1156 162 1171 79 1200 -30 c 5
 1200 -105 l 5
1145 -190 m 4
 700 -190 l 29
 700 -165 l 29
 1120 -165 l 21
 1120 -143 1153 -115 1200 -115 c 5
 1200 -145 l 4
 1170 -145 1145 -165 1145 -190 c 4
0 -105 m 5
 0 -30 l 5
 29 79 44 162 44 219 c 4
 44 276 29 305 0 305 c 5
 0 325 l 5
 46 325 76 299 76 223 c 4
 76 157 54 53 0 -105 c 5
585 -80 m 5
 585 320 l 5
 615 320 l 5
 615 -80 l 5
 585 -80 l 5
EndSplineSet
Validated: 1
EndChar

StartChar: x
Encoding: 120 120 3
Width: 1200
Flags: HMW
TeX: 120 0
LayerCount: 2
Fore
SplineSet
55 990 m 4
 500 990 l 29
 500 965 l 29
 80 965 l 21
 80 943 47 915 0 915 c 5
 0 945 l 4
 30 945 55 965 55 990 c 4
513 929 m 5
 290 840 l 5
 279 868 l 5
 502 957 l 5
 513 929 l 5
574 882 m 5
 480 661 l 5
 453 673 l 5
 547 894 l 5
 574 882 l 5
687 929 m 5
 698 957 l 5
 921 868 l 5
 910 840 l 5
 687 929 l 5
626 882 m 5
 653 894 l 5
 747 673 l 5
 720 661 l 5
 626 882 l 5
682 920 m 5
 966 639 l 5
 945 618 l 5
 661 899 l 5
 682 920 l 5
518 920 m 5
 539 899 l 5
 255 618 l 5
 234 639 l 5
 518 920 l 5
575 965 m 4
 575 979 586 990 600 990 c 4
 614 990 625 979 625 965 c 4
 625 951 614 940 600 940 c 4
 586 940 575 951 575 965 c 4
0 915 m 1029
1200 905 m 5
 1200 830 l 5
 1171 721 1156 638 1156 581 c 4
 1156 524 1171 495 1200 495 c 5
 1200 475 l 5
 1154 475 1124 501 1124 577 c 4
 1124 643 1146 747 1200 905 c 5
1145 990 m 4
 1145 965 1170 945 1200 945 c 4
 1200 915 l 5
 1153 915 1120 943 1120 965 c 13
 700 965 l 29
 700 990 l 29
 1145 990 l 4
0 905 m 5
 54 747 76 643 76 577 c 4
 76 501 46 475 0 475 c 5
 0 495 l 5
 29 495 44 524 44 581 c 4
 44 638 29 721 0 830 c 5
 0 905 l 5
585 880 m 5
 615 880 l 5
 615 480 l 5
 585 480 l 5
 585 880 l 5
EndSplineSet
Validated: 1
EndChar

StartChar: y
Encoding: 121 121 4
Width: 1200
Flags: HMW
TeX: 121 0
LayerCount: 2
Fore
SplineSet
0 -105 m 1
 0 -30 l 1
 29 79 44 162 44 219 c 0
 44 276 29 305 0 305 c 1
 0 325 l 1
 46 325 76 299 76 223 c 0
 76 157 54 53 0 -105 c 1
1105 1000 m 1
 947 946 843 924 777 924 c 0
 701 924 675 954 675 1000 c 1
 695 1000 l 1
 695 971 724 956 781 956 c 0
 838 956 921 971 1030 1000 c 1
 1105 1000 l 1
0 -115 m 1
 47 -115 85 -153 85 -200 c 1
 55 -200 l 0
 55 -170 30 -145 0 -145 c 0
 0 -115 l 1
1200 905 m 1
 1200 830 l 1
 1171 721 1156 638 1156 581 c 0
 1156 524 1171 495 1200 495 c 1
 1200 475 l 1
 1154 475 1124 501 1124 577 c 0
 1124 643 1146 747 1200 905 c 1
1200 915 m 1
 1153 915 1115 953 1115 1000 c 1
 1145 1000 l 0
 1145 970 1170 945 1200 945 c 0
 1200 915 l 1
95 -200 m 1
 253 -146 357 -124 423 -124 c 0
 499 -124 525 -154 525 -200 c 1
 505 -200 l 1
 505 -171 476 -156 419 -156 c 0
 362 -156 279 -171 170 -200 c 1
 95 -200 l 1
EndSplineSet
Validated: 1
EndChar

StartChar: q
Encoding: 113 113 6
Width: 1200
Flags: HMW
TeX: 113 0
LayerCount: 2
Fore
SplineSet
1200 -105 m 1
 1146 53 1124 157 1124 223 c 0
 1124 299 1154 325 1200 325 c 1
 1200 305 l 1
 1171 305 1156 276 1156 219 c 0
 1156 162 1171 79 1200 -30 c 1
 1200 -105 l 1
1200 -115 m 1
 1200 -145 l 0
 1170 -145 1145 -170 1145 -200 c 0
 1115 -200 l 1
 1115 -153 1153 -115 1200 -115 c 1
1105 -200 m 1
 1030 -200 l 1
 921 -171 838 -156 781 -156 c 0
 724 -156 695 -171 695 -200 c 1
 675 -200 l 1
 675 -154 701 -124 777 -124 c 0
 843 -124 947 -146 1105 -200 c 1
EndSplineSet
Validated: 1
EndChar

StartChar: c
Encoding: 99 99 7
Width: 1200
Flags: HMW
TeX: 99 0
LayerCount: 2
Fore
SplineSet
95 1000 m 1
 170 1000 l 1
 279 971 362 956 419 956 c 0
 476 956 505 971 505 1000 c 1
 525 1000 l 1
 525 954 499 924 423 924 c 0
 357 924 253 946 95 1000 c 1
0 915 m 1
 0 945 l 0
 30 945 55 970 55 1000 c 0
 85 1000 l 1
 85 953 47 915 0 915 c 1
0 905 m 1
 54 747 76 643 76 577 c 0
 76 501 46 475 0 475 c 1
 0 495 l 1
 29 495 44 524 44 581 c 0
 44 638 29 721 0 830 c 1
 0 905 l 1
EndSplineSet
Validated: 1
EndChar

StartChar: e
Encoding: 101 101 8
Width: 1200
Flags: HMW
TeX: 101 0
LayerCount: 2
Fore
SplineSet
0 -105 m 1
 0 -30 l 1
 29 79 44 162 44 219 c 0
 44 276 29 305 0 305 c 1
 0 325 l 1
 46 325 76 299 76 223 c 0
 76 157 54 53 0 -105 c 1
0 -115 m 1
 47 -115 85 -153 85 -200 c 1
 55 -200 l 0
 55 -170 30 -145 0 -145 c 0
 0 -115 l 1
95 -200 m 1
 253 -146 357 -124 423 -124 c 0
 499 -124 525 -154 525 -200 c 1
 505 -200 l 1
 505 -171 476 -156 419 -156 c 0
 362 -156 279 -171 170 -200 c 1
 95 -200 l 1
EndSplineSet
Validated: 1
EndChar

StartChar: z
Encoding: 122 122 9
Width: 1200
Flags: HMW
TeX: 122 0
LayerCount: 2
Fore
SplineSet
1105 1000 m 1
 947 946 843 924 777 924 c 0
 701 924 675 954 675 1000 c 1
 695 1000 l 1
 695 971 724 956 781 956 c 0
 838 956 921 971 1030 1000 c 1
 1105 1000 l 1
1200 905 m 1
 1200 830 l 1
 1171 721 1156 638 1156 581 c 0
 1156 524 1171 495 1200 495 c 1
 1200 475 l 1
 1154 475 1124 501 1124 577 c 0
 1124 643 1146 747 1200 905 c 1
1200 915 m 1
 1153 915 1115 953 1115 1000 c 1
 1145 1000 l 0
 1145 970 1170 945 1200 945 c 0
 1200 915 l 1
EndSplineSet
Validated: 1
EndChar

StartChar: C
Encoding: 67 67 10
Width: 1200
Flags: HMW
TeX: 67 0
LayerCount: 2
Fore
SplineSet
425 610 m 0
 425 745 118 905 102 905 c 0
 98 905 94 901 94 897 c 0
 94 881 258 575 393 575 c 0
 407 575 425 596 425 610 c 0
450 627 m 0
 450 582 418 550 373 550 c 0
 248 550 62 870 62 920 c 0
 62 930 70 938 80 938 c 0
 130 938 450 752 450 627 c 0
95 1000 m 1
 170 1000 l 1
 279 971 362 956 419 956 c 0
 476 956 505 971 505 1000 c 1
 525 1000 l 1
 525 954 499 924 423 924 c 0
 357 924 253 946 95 1000 c 1
0 915 m 1
 0 945 l 0
 30 945 55 970 55 1000 c 0
 85 1000 l 1
 85 953 47 915 0 915 c 1
0 905 m 1
 54 747 76 643 76 577 c 0
 76 501 46 475 0 475 c 1
 0 495 l 1
 29 495 44 524 44 581 c 0
 44 638 29 721 0 830 c 1
 0 905 l 1
EndSplineSet
Validated: 1
EndChar

StartChar: E
Encoding: 69 69 11
Width: 1200
Flags: HMW
TeX: 69 0
LayerCount: 2
Fore
SplineSet
425 190 m 0
 425 204 407 225 393 225 c 0
 258 225 94 -81 94 -97 c 0
 94 -101 98 -105 102 -105 c 0
 118 -105 425 55 425 190 c 0
450 173 m 0
 450 48 130 -138 80 -138 c 0
 70 -138 62 -130 62 -120 c 0
 62 -70 248 250 373 250 c 0
 418 250 450 218 450 173 c 0
0 -105 m 1
 0 -30 l 1
 29 79 44 162 44 219 c 0
 44 276 29 305 0 305 c 1
 0 325 l 1
 46 325 76 299 76 223 c 0
 76 157 54 53 0 -105 c 1
0 -115 m 1
 47 -115 85 -153 85 -200 c 1
 55 -200 l 0
 55 -170 30 -145 0 -145 c 0
 0 -115 l 1
95 -200 m 1
 253 -146 357 -124 423 -124 c 0
 499 -124 525 -154 525 -200 c 1
 505 -200 l 1
 505 -171 476 -156 419 -156 c 0
 362 -156 279 -171 170 -200 c 1
 95 -200 l 1
EndSplineSet
Validated: 1
EndChar

StartChar: Q
Encoding: 81 81 12
Width: 1200
Flags: HMW
TeX: 81 0
LayerCount: 2
Fore
SplineSet
775 190 m 0
 775 55 1082 -105 1098 -105 c 0
 1102 -105 1106 -101 1106 -97 c 0
 1106 -81 942 225 807 225 c 0
 793 225 775 204 775 190 c 0
750 173 m 0
 750 218 782 250 827 250 c 0
 952 250 1138 -70 1138 -120 c 0
 1138 -130 1130 -138 1120 -138 c 0
 1070 -138 750 48 750 173 c 0
1200 -105 m 1
 1146 53 1124 157 1124 223 c 0
 1124 299 1154 325 1200 325 c 1
 1200 305 l 1
 1171 305 1156 276 1156 219 c 0
 1156 162 1171 79 1200 -30 c 1
 1200 -105 l 1
1200 -115 m 1
 1200 -145 l 0
 1170 -145 1145 -170 1145 -200 c 0
 1115 -200 l 1
 1115 -153 1153 -115 1200 -115 c 1
1105 -200 m 1
 1030 -200 l 1
 921 -171 838 -156 781 -156 c 0
 724 -156 695 -171 695 -200 c 1
 675 -200 l 1
 675 -154 701 -124 777 -124 c 0
 843 -124 947 -146 1105 -200 c 1
EndSplineSet
Validated: 1
EndChar

StartChar: Z
Encoding: 90 90 13
Width: 1200
Flags: HMW
TeX: 90 0
LayerCount: 2
Fore
SplineSet
775 610 m 0
 775 596 793 575 807 575 c 0
 942 575 1106 881 1106 897 c 0
 1106 901 1102 905 1098 905 c 0
 1082 905 775 745 775 610 c 0
750 627 m 0
 750 752 1070 938 1120 938 c 0
 1130 938 1138 930 1138 920 c 0
 1138 870 952 550 827 550 c 0
 782 550 750 582 750 627 c 0
1105 1000 m 1
 947 946 843 924 777 924 c 0
 701 924 675 954 675 1000 c 1
 695 1000 l 1
 695 971 724 956 781 956 c 0
 838 956 921 971 1030 1000 c 1
 1105 1000 l 1
1200 905 m 1
 1200 830 l 1
 1171 721 1156 638 1156 581 c 0
 1156 524 1171 495 1200 495 c 1
 1200 475 l 1
 1154 475 1124 501 1124 577 c 0
 1124 643 1146 747 1200 905 c 1
1200 915 m 1
 1153 915 1115 953 1115 1000 c 1
 1145 1000 l 0
 1145 970 1170 945 1200 945 c 0
 1200 915 l 1
EndSplineSet
Validated: 1
EndChar

StartChar: s
Encoding: 115 115 14
Width: 1200
Flags: HMW
TeX: 115 0
LayerCount: 2
Fore
SplineSet
1200 -105 m 5
 1146 53 1124 157 1124 223 c 4
 1124 299 1154 325 1200 325 c 5
 1200 305 l 5
 1171 305 1156 276 1156 219 c 4
 1156 162 1171 79 1200 -30 c 5
 1200 -105 l 5
0 -105 m 5
 0 -30 l 5
 29 79 44 162 44 219 c 4
 44 276 29 305 0 305 c 5
 0 325 l 5
 46 325 76 299 76 223 c 4
 76 157 54 53 0 -105 c 5
95 1000 m 5
 170 1000 l 5
 279 971 362 956 419 956 c 4
 476 956 505 971 505 1000 c 5
 525 1000 l 5
 525 954 499 924 423 924 c 4
 357 924 253 946 95 1000 c 5
1105 1000 m 5
 947 946 843 924 777 924 c 4
 701 924 675 954 675 1000 c 5
 695 1000 l 5
 695 971 724 956 781 956 c 4
 838 956 921 971 1030 1000 c 5
 1105 1000 l 5
1200 -115 m 5
 1200 -145 l 4
 1170 -145 1145 -170 1145 -200 c 4
 1115 -200 l 5
 1115 -153 1153 -115 1200 -115 c 5
0 -115 m 5
 47 -115 85 -153 85 -200 c 5
 55 -200 l 4
 55 -170 30 -145 0 -145 c 4
 0 -115 l 5
0 915 m 5
 0 945 l 4
 30 945 55 970 55 1000 c 4
 85 1000 l 5
 85 953 47 915 0 915 c 5
1200 905 m 5
 1200 830 l 5
 1171 721 1156 638 1156 581 c 4
 1156 524 1171 495 1200 495 c 5
 1200 475 l 5
 1154 475 1124 501 1124 577 c 4
 1124 643 1146 747 1200 905 c 5
1200 915 m 5
 1153 915 1115 953 1115 1000 c 5
 1145 1000 l 4
 1145 970 1170 945 1200 945 c 4
 1200 915 l 5
95 -200 m 5
 253 -146 357 -124 423 -124 c 4
 499 -124 525 -154 525 -200 c 5
 505 -200 l 5
 505 -171 476 -156 419 -156 c 4
 362 -156 279 -171 170 -200 c 5
 95 -200 l 5
0 905 m 5
 54 747 76 643 76 577 c 4
 76 501 46 475 0 475 c 5
 0 495 l 5
 29 495 44 524 44 581 c 4
 44 638 29 721 0 830 c 5
 0 905 l 5
1105 -200 m 5
 1030 -200 l 5
 921 -171 838 -156 781 -156 c 4
 724 -156 695 -171 695 -200 c 5
 675 -200 l 5
 675 -154 701 -124 777 -124 c 4
 843 -124 947 -146 1105 -200 c 5
EndSplineSet
Validated: 1
EndChar

StartChar: h
Encoding: 104 104 15
Width: 1200
Flags: HMW
TeX: 104 0
LayerCount: 2
Fore
SplineSet
0 -105 m 1
 0 -30 l 1
 29 79 44 162 44 219 c 0
 44 276 29 305 0 305 c 1
 0 325 l 1
 46 325 76 299 76 223 c 0
 76 157 54 53 0 -105 c 1
95 1000 m 1
 170 1000 l 1
 279 971 362 956 419 956 c 0
 476 956 505 971 505 1000 c 1
 525 1000 l 1
 525 954 499 924 423 924 c 0
 357 924 253 946 95 1000 c 1
0 -115 m 1
 47 -115 85 -153 85 -200 c 1
 55 -200 l 0
 55 -170 30 -145 0 -145 c 0
 0 -115 l 1
0 915 m 1
 0 945 l 0
 30 945 55 970 55 1000 c 0
 85 1000 l 1
 85 953 47 915 0 915 c 1
95 -200 m 1
 253 -146 357 -124 423 -124 c 0
 499 -124 525 -154 525 -200 c 1
 505 -200 l 1
 505 -171 476 -156 419 -156 c 0
 362 -156 279 -171 170 -200 c 1
 95 -200 l 1
0 905 m 1
 54 747 76 643 76 577 c 0
 76 501 46 475 0 475 c 1
 0 495 l 1
 29 495 44 524 44 581 c 0
 44 638 29 721 0 830 c 1
 0 905 l 1
EndSplineSet
Validated: 1
EndChar

StartChar: f
Encoding: 102 102 16
Width: 1200
Flags: HMW
TeX: 102 0
LayerCount: 2
Fore
SplineSet
1200 -105 m 1
 1146 53 1124 157 1124 223 c 0
 1124 299 1154 325 1200 325 c 1
 1200 305 l 1
 1171 305 1156 276 1156 219 c 0
 1156 162 1171 79 1200 -30 c 1
 1200 -105 l 1
1105 1000 m 1
 947 946 843 924 777 924 c 0
 701 924 675 954 675 1000 c 1
 695 1000 l 1
 695 971 724 956 781 956 c 0
 838 956 921 971 1030 1000 c 1
 1105 1000 l 1
1200 -115 m 1
 1200 -145 l 0
 1170 -145 1145 -170 1145 -200 c 0
 1115 -200 l 1
 1115 -153 1153 -115 1200 -115 c 1
1200 905 m 1
 1200 830 l 1
 1171 721 1156 638 1156 581 c 0
 1156 524 1171 495 1200 495 c 1
 1200 475 l 1
 1154 475 1124 501 1124 577 c 0
 1124 643 1146 747 1200 905 c 1
1200 915 m 1
 1153 915 1115 953 1115 1000 c 1
 1145 1000 l 0
 1145 970 1170 945 1200 945 c 0
 1200 915 l 1
1105 -200 m 1
 1030 -200 l 1
 921 -171 838 -156 781 -156 c 0
 724 -156 695 -171 695 -200 c 1
 675 -200 l 1
 675 -154 701 -124 777 -124 c 0
 843 -124 947 -146 1105 -200 c 1
EndSplineSet
Validated: 1
EndChar

StartChar: S
Encoding: 83 83 17
Width: 1200
Flags: HMW
TeX: 83 0
LayerCount: 2
Fore
SplineSet
775 610 m 4
 775 596 793 575 807 575 c 4
 942 575 1106 881 1106 897 c 4
 1106 901 1102 905 1098 905 c 4
 1082 905 775 745 775 610 c 4
750 627 m 4
 750 752 1070 938 1120 938 c 4
 1130 938 1138 930 1138 920 c 4
 1138 870 952 550 827 550 c 4
 782 550 750 582 750 627 c 4
425 610 m 4
 425 745 118 905 102 905 c 4
 98 905 94 901 94 897 c 4
 94 881 258 575 393 575 c 4
 407 575 425 596 425 610 c 4
450 627 m 4
 450 582 418 550 373 550 c 4
 248 550 62 870 62 920 c 4
 62 930 70 938 80 938 c 4
 130 938 450 752 450 627 c 4
775 190 m 4
 775 55 1082 -105 1098 -105 c 4
 1102 -105 1106 -101 1106 -97 c 4
 1106 -81 942 225 807 225 c 4
 793 225 775 204 775 190 c 4
750 173 m 4
 750 218 782 250 827 250 c 4
 952 250 1138 -70 1138 -120 c 4
 1138 -130 1130 -138 1120 -138 c 4
 1070 -138 750 48 750 173 c 4
425 190 m 4
 425 204 407 225 393 225 c 4
 258 225 94 -81 94 -97 c 4
 94 -101 98 -105 102 -105 c 4
 118 -105 425 55 425 190 c 4
450 173 m 4
 450 48 130 -138 80 -138 c 4
 70 -138 62 -130 62 -120 c 4
 62 -70 248 250 373 250 c 4
 418 250 450 218 450 173 c 4
1200 -105 m 1
 1146 53 1124 157 1124 223 c 0
 1124 299 1154 325 1200 325 c 1
 1200 305 l 1
 1171 305 1156 276 1156 219 c 0
 1156 162 1171 79 1200 -30 c 1
 1200 -105 l 1
0 -105 m 1
 0 -30 l 1
 29 79 44 162 44 219 c 0
 44 276 29 305 0 305 c 1
 0 325 l 1
 46 325 76 299 76 223 c 0
 76 157 54 53 0 -105 c 1
95 1000 m 1
 170 1000 l 1
 279 971 362 956 419 956 c 0
 476 956 505 971 505 1000 c 1
 525 1000 l 1
 525 954 499 924 423 924 c 0
 357 924 253 946 95 1000 c 1
1105 1000 m 1
 947 946 843 924 777 924 c 0
 701 924 675 954 675 1000 c 1
 695 1000 l 1
 695 971 724 956 781 956 c 0
 838 956 921 971 1030 1000 c 1
 1105 1000 l 1
1200 -115 m 1
 1200 -145 l 0
 1170 -145 1145 -170 1145 -200 c 0
 1115 -200 l 1
 1115 -153 1153 -115 1200 -115 c 1
0 -115 m 1
 47 -115 85 -153 85 -200 c 1
 55 -200 l 0
 55 -170 30 -145 0 -145 c 0
 0 -115 l 1
0 915 m 1
 0 945 l 0
 30 945 55 970 55 1000 c 0
 85 1000 l 1
 85 953 47 915 0 915 c 1
1200 905 m 1
 1200 830 l 1
 1171 721 1156 638 1156 581 c 0
 1156 524 1171 495 1200 495 c 1
 1200 475 l 1
 1154 475 1124 501 1124 577 c 0
 1124 643 1146 747 1200 905 c 1
1200 915 m 1
 1153 915 1115 953 1115 1000 c 1
 1145 1000 l 0
 1145 970 1170 945 1200 945 c 0
 1200 915 l 1
95 -200 m 1
 253 -146 357 -124 423 -124 c 0
 499 -124 525 -154 525 -200 c 1
 505 -200 l 1
 505 -171 476 -156 419 -156 c 0
 362 -156 279 -171 170 -200 c 1
 95 -200 l 1
0 905 m 1
 54 747 76 643 76 577 c 0
 76 501 46 475 0 475 c 1
 0 495 l 1
 29 495 44 524 44 581 c 0
 44 638 29 721 0 830 c 1
 0 905 l 1
1105 -200 m 1
 1030 -200 l 1
 921 -171 838 -156 781 -156 c 0
 724 -156 695 -171 695 -200 c 1
 675 -200 l 1
 675 -154 701 -124 777 -124 c 0
 843 -124 947 -146 1105 -200 c 1
EndSplineSet
Validated: 1
EndChar

StartChar: t
Encoding: 116 116 18
Width: 1200
Flags: HMW
TeX: 116 0
LayerCount: 2
Fore
SplineSet
1200 -105 m 1
 1146 53 1124 157 1124 223 c 0
 1124 299 1154 325 1200 325 c 1
 1200 305 l 1
 1171 305 1156 276 1156 219 c 0
 1156 162 1171 79 1200 -30 c 1
 1200 -105 l 1
0 -105 m 1
 0 -30 l 1
 29 79 44 162 44 219 c 0
 44 276 29 305 0 305 c 1
 0 325 l 1
 46 325 76 299 76 223 c 0
 76 157 54 53 0 -105 c 1
1200 -115 m 1
 1200 -145 l 0
 1170 -145 1145 -170 1145 -200 c 0
 1115 -200 l 1
 1115 -153 1153 -115 1200 -115 c 1
0 -115 m 1
 47 -115 85 -153 85 -200 c 1
 55 -200 l 0
 55 -170 30 -145 0 -145 c 0
 0 -115 l 1
95 -200 m 1
 253 -146 357 -124 423 -124 c 0
 499 -124 525 -154 525 -200 c 1
 505 -200 l 1
 505 -171 476 -156 419 -156 c 0
 362 -156 279 -171 170 -200 c 1
 95 -200 l 1
1105 -200 m 1
 1030 -200 l 1
 921 -171 838 -156 781 -156 c 0
 724 -156 695 -171 695 -200 c 1
 675 -200 l 1
 675 -154 701 -124 777 -124 c 0
 843 -124 947 -146 1105 -200 c 1
EndSplineSet
Validated: 1
EndChar

StartChar: b
Encoding: 98 98 19
Width: 1200
Flags: HMW
TeX: 98 0
LayerCount: 2
Fore
SplineSet
95 1000 m 1
 170 1000 l 1
 279 971 362 956 419 956 c 0
 476 956 505 971 505 1000 c 1
 525 1000 l 1
 525 954 499 924 423 924 c 0
 357 924 253 946 95 1000 c 1
1105 1000 m 1
 947 946 843 924 777 924 c 0
 701 924 675 954 675 1000 c 1
 695 1000 l 1
 695 971 724 956 781 956 c 0
 838 956 921 971 1030 1000 c 1
 1105 1000 l 1
0 915 m 5
 0 945 l 4
 30 945 55 970 55 1000 c 4
 85 1000 l 5
 85 953 47 915 0 915 c 5
1200 905 m 5
 1200 830 l 5
 1171 721 1156 638 1156 581 c 4
 1156 524 1171 495 1200 495 c 5
 1200 475 l 5
 1154 475 1124 501 1124 577 c 4
 1124 643 1146 747 1200 905 c 5
1200 915 m 5
 1153 915 1115 953 1115 1000 c 5
 1145 1000 l 4
 1145 970 1170 945 1200 945 c 4
 1200 915 l 5
0 905 m 5
 54 747 76 643 76 577 c 4
 76 501 46 475 0 475 c 5
 0 495 l 5
 29 495 44 524 44 581 c 4
 44 638 29 721 0 830 c 5
 0 905 l 5
EndSplineSet
Validated: 1
EndChar

StartChar: r
Encoding: 114 114 20
Width: 1200
Flags: HMW
TeX: 114 0
LayerCount: 2
Fore
SplineSet
1200 -105 m 1
 1146 53 1124 157 1124 223 c 0
 1124 299 1154 325 1200 325 c 1
 1200 305 l 1
 1171 305 1156 276 1156 219 c 0
 1156 162 1171 79 1200 -30 c 1
 1200 -105 l 1
95 1000 m 1
 170 1000 l 1
 279 971 362 956 419 956 c 0
 476 956 505 971 505 1000 c 1
 525 1000 l 1
 525 954 499 924 423 924 c 0
 357 924 253 946 95 1000 c 1
1200 -115 m 1
 1200 -145 l 0
 1170 -145 1145 -170 1145 -200 c 0
 1115 -200 l 1
 1115 -153 1153 -115 1200 -115 c 1
0 915 m 1
 0 945 l 0
 30 945 55 970 55 1000 c 0
 85 1000 l 1
 85 953 47 915 0 915 c 1
0 905 m 1
 54 747 76 643 76 577 c 0
 76 501 46 475 0 475 c 1
 0 495 l 1
 29 495 44 524 44 581 c 0
 44 638 29 721 0 830 c 1
 0 905 l 1
1105 -200 m 1
 1030 -200 l 1
 921 -171 838 -156 781 -156 c 0
 724 -156 695 -171 695 -200 c 1
 675 -200 l 1
 675 -154 701 -124 777 -124 c 0
 843 -124 947 -146 1105 -200 c 1
EndSplineSet
Validated: 1
EndChar

StartChar: Y
Encoding: 89 89 21
Width: 1200
Flags: HMW
TeX: 89 0
LayerCount: 2
Fore
SplineSet
775 610 m 0
 775 596 793 575 807 575 c 0
 942 575 1106 881 1106 897 c 0
 1106 901 1102 905 1098 905 c 0
 1082 905 775 745 775 610 c 0
750 627 m 0
 750 752 1070 938 1120 938 c 0
 1130 938 1138 930 1138 920 c 0
 1138 870 952 550 827 550 c 0
 782 550 750 582 750 627 c 0
425 190 m 0
 425 204 407 225 393 225 c 0
 258 225 94 -81 94 -97 c 0
 94 -101 98 -105 102 -105 c 0
 118 -105 425 55 425 190 c 0
450 173 m 0
 450 48 130 -138 80 -138 c 0
 70 -138 62 -130 62 -120 c 0
 62 -70 248 250 373 250 c 0
 418 250 450 218 450 173 c 0
0 -105 m 1
 0 -30 l 1
 29 79 44 162 44 219 c 0
 44 276 29 305 0 305 c 1
 0 325 l 1
 46 325 76 299 76 223 c 0
 76 157 54 53 0 -105 c 1
1105 1000 m 1
 947 946 843 924 777 924 c 0
 701 924 675 954 675 1000 c 1
 695 1000 l 1
 695 971 724 956 781 956 c 0
 838 956 921 971 1030 1000 c 1
 1105 1000 l 1
0 -115 m 1
 47 -115 85 -153 85 -200 c 1
 55 -200 l 0
 55 -170 30 -145 0 -145 c 0
 0 -115 l 1
1200 905 m 1
 1200 830 l 1
 1171 721 1156 638 1156 581 c 0
 1156 524 1171 495 1200 495 c 1
 1200 475 l 1
 1154 475 1124 501 1124 577 c 0
 1124 643 1146 747 1200 905 c 1
1200 915 m 1
 1153 915 1115 953 1115 1000 c 1
 1145 1000 l 0
 1145 970 1170 945 1200 945 c 0
 1200 915 l 1
95 -200 m 1
 253 -146 357 -124 423 -124 c 0
 499 -124 525 -154 525 -200 c 1
 505 -200 l 1
 505 -171 476 -156 419 -156 c 0
 362 -156 279 -171 170 -200 c 1
 95 -200 l 1
EndSplineSet
Validated: 1
EndChar

StartChar: R
Encoding: 82 82 22
Width: 1200
Flags: HMW
TeX: 82 0
LayerCount: 2
Fore
SplineSet
425 610 m 0
 425 745 118 905 102 905 c 0
 98 905 94 901 94 897 c 0
 94 881 258 575 393 575 c 0
 407 575 425 596 425 610 c 0
450 627 m 0
 450 582 418 550 373 550 c 0
 248 550 62 870 62 920 c 0
 62 930 70 938 80 938 c 0
 130 938 450 752 450 627 c 0
775 190 m 0
 775 55 1082 -105 1098 -105 c 0
 1102 -105 1106 -101 1106 -97 c 0
 1106 -81 942 225 807 225 c 0
 793 225 775 204 775 190 c 0
750 173 m 0
 750 218 782 250 827 250 c 0
 952 250 1138 -70 1138 -120 c 0
 1138 -130 1130 -138 1120 -138 c 0
 1070 -138 750 48 750 173 c 0
1200 -105 m 1
 1146 53 1124 157 1124 223 c 0
 1124 299 1154 325 1200 325 c 1
 1200 305 l 1
 1171 305 1156 276 1156 219 c 0
 1156 162 1171 79 1200 -30 c 1
 1200 -105 l 1
95 1000 m 1
 170 1000 l 1
 279 971 362 956 419 956 c 0
 476 956 505 971 505 1000 c 1
 525 1000 l 1
 525 954 499 924 423 924 c 0
 357 924 253 946 95 1000 c 1
1200 -115 m 1
 1200 -145 l 0
 1170 -145 1145 -170 1145 -200 c 0
 1115 -200 l 1
 1115 -153 1153 -115 1200 -115 c 1
0 915 m 1
 0 945 l 0
 30 945 55 970 55 1000 c 0
 85 1000 l 1
 85 953 47 915 0 915 c 1
0 905 m 1
 54 747 76 643 76 577 c 0
 76 501 46 475 0 475 c 1
 0 495 l 1
 29 495 44 524 44 581 c 0
 44 638 29 721 0 830 c 1
 0 905 l 1
1105 -200 m 1
 1030 -200 l 1
 921 -171 838 -156 781 -156 c 0
 724 -156 695 -171 695 -200 c 1
 675 -200 l 1
 675 -154 701 -124 777 -124 c 0
 843 -124 947 -146 1105 -200 c 1
EndSplineSet
Validated: 1
EndChar

StartChar: F
Encoding: 70 70 23
Width: 1200
Flags: HMW
TeX: 70 0
LayerCount: 2
Fore
SplineSet
775 610 m 0
 775 596 793 575 807 575 c 0
 942 575 1106 881 1106 897 c 0
 1106 901 1102 905 1098 905 c 0
 1082 905 775 745 775 610 c 0
750 627 m 0
 750 752 1070 938 1120 938 c 0
 1130 938 1138 930 1138 920 c 0
 1138 870 952 550 827 550 c 0
 782 550 750 582 750 627 c 0
775 190 m 0
 775 55 1082 -105 1098 -105 c 0
 1102 -105 1106 -101 1106 -97 c 0
 1106 -81 942 225 807 225 c 0
 793 225 775 204 775 190 c 0
750 173 m 0
 750 218 782 250 827 250 c 0
 952 250 1138 -70 1138 -120 c 0
 1138 -130 1130 -138 1120 -138 c 0
 1070 -138 750 48 750 173 c 0
1200 -105 m 1
 1146 53 1124 157 1124 223 c 0
 1124 299 1154 325 1200 325 c 1
 1200 305 l 1
 1171 305 1156 276 1156 219 c 0
 1156 162 1171 79 1200 -30 c 1
 1200 -105 l 1
1105 1000 m 1
 947 946 843 924 777 924 c 0
 701 924 675 954 675 1000 c 1
 695 1000 l 1
 695 971 724 956 781 956 c 0
 838 956 921 971 1030 1000 c 1
 1105 1000 l 1
1200 -115 m 1
 1200 -145 l 0
 1170 -145 1145 -170 1145 -200 c 0
 1115 -200 l 1
 1115 -153 1153 -115 1200 -115 c 1
1200 905 m 1
 1200 830 l 1
 1171 721 1156 638 1156 581 c 0
 1156 524 1171 495 1200 495 c 1
 1200 475 l 1
 1154 475 1124 501 1124 577 c 0
 1124 643 1146 747 1200 905 c 1
1200 915 m 1
 1153 915 1115 953 1115 1000 c 1
 1145 1000 l 0
 1145 970 1170 945 1200 945 c 0
 1200 915 l 1
1105 -200 m 1
 1030 -200 l 1
 921 -171 838 -156 781 -156 c 0
 724 -156 695 -171 695 -200 c 1
 675 -200 l 1
 675 -154 701 -124 777 -124 c 0
 843 -124 947 -146 1105 -200 c 1
EndSplineSet
Validated: 1
EndChar

StartChar: H
Encoding: 72 72 24
Width: 1200
Flags: HMW
TeX: 72 0
LayerCount: 2
Fore
SplineSet
425 610 m 0
 425 745 118 905 102 905 c 0
 98 905 94 901 94 897 c 0
 94 881 258 575 393 575 c 0
 407 575 425 596 425 610 c 0
450 627 m 0
 450 582 418 550 373 550 c 0
 248 550 62 870 62 920 c 0
 62 930 70 938 80 938 c 0
 130 938 450 752 450 627 c 0
425 190 m 0
 425 204 407 225 393 225 c 0
 258 225 94 -81 94 -97 c 0
 94 -101 98 -105 102 -105 c 0
 118 -105 425 55 425 190 c 0
450 173 m 0
 450 48 130 -138 80 -138 c 0
 70 -138 62 -130 62 -120 c 0
 62 -70 248 250 373 250 c 0
 418 250 450 218 450 173 c 0
0 -105 m 1
 0 -30 l 1
 29 79 44 162 44 219 c 0
 44 276 29 305 0 305 c 1
 0 325 l 1
 46 325 76 299 76 223 c 0
 76 157 54 53 0 -105 c 1
95 1000 m 1
 170 1000 l 1
 279 971 362 956 419 956 c 0
 476 956 505 971 505 1000 c 1
 525 1000 l 1
 525 954 499 924 423 924 c 0
 357 924 253 946 95 1000 c 1
0 -115 m 1
 47 -115 85 -153 85 -200 c 1
 55 -200 l 0
 55 -170 30 -145 0 -145 c 0
 0 -115 l 1
0 915 m 1
 0 945 l 0
 30 945 55 970 55 1000 c 0
 85 1000 l 1
 85 953 47 915 0 915 c 1
95 -200 m 1
 253 -146 357 -124 423 -124 c 0
 499 -124 525 -154 525 -200 c 1
 505 -200 l 1
 505 -171 476 -156 419 -156 c 0
 362 -156 279 -171 170 -200 c 1
 95 -200 l 1
0 905 m 1
 54 747 76 643 76 577 c 0
 76 501 46 475 0 475 c 1
 0 495 l 1
 29 495 44 524 44 581 c 0
 44 638 29 721 0 830 c 1
 0 905 l 1
EndSplineSet
Validated: 1
EndChar

StartChar: B
Encoding: 66 66 25
Width: 1200
Flags: HMW
TeX: 66 0
LayerCount: 2
Fore
SplineSet
775 610 m 0
 775 596 793 575 807 575 c 0
 942 575 1106 881 1106 897 c 0
 1106 901 1102 905 1098 905 c 0
 1082 905 775 745 775 610 c 0
750 627 m 0
 750 752 1070 938 1120 938 c 0
 1130 938 1138 930 1138 920 c 0
 1138 870 952 550 827 550 c 0
 782 550 750 582 750 627 c 0
425 610 m 0
 425 745 118 905 102 905 c 0
 98 905 94 901 94 897 c 0
 94 881 258 575 393 575 c 0
 407 575 425 596 425 610 c 0
450 627 m 0
 450 582 418 550 373 550 c 0
 248 550 62 870 62 920 c 0
 62 930 70 938 80 938 c 0
 130 938 450 752 450 627 c 0
95 1000 m 1
 170 1000 l 1
 279 971 362 956 419 956 c 0
 476 956 505 971 505 1000 c 1
 525 1000 l 1
 525 954 499 924 423 924 c 0
 357 924 253 946 95 1000 c 1
1105 1000 m 1
 947 946 843 924 777 924 c 0
 701 924 675 954 675 1000 c 1
 695 1000 l 1
 695 971 724 956 781 956 c 0
 838 956 921 971 1030 1000 c 1
 1105 1000 l 1
0 915 m 1
 0 945 l 0
 30 945 55 970 55 1000 c 0
 85 1000 l 1
 85 953 47 915 0 915 c 1
1200 905 m 1
 1200 830 l 1
 1171 721 1156 638 1156 581 c 0
 1156 524 1171 495 1200 495 c 1
 1200 475 l 1
 1154 475 1124 501 1124 577 c 0
 1124 643 1146 747 1200 905 c 1
1200 915 m 1
 1153 915 1115 953 1115 1000 c 1
 1145 1000 l 0
 1145 970 1170 945 1200 945 c 0
 1200 915 l 1
0 905 m 1
 54 747 76 643 76 577 c 0
 76 501 46 475 0 475 c 1
 0 495 l 1
 29 495 44 524 44 581 c 0
 44 638 29 721 0 830 c 1
 0 905 l 1
EndSplineSet
Validated: 1
EndChar

StartChar: T
Encoding: 84 84 26
Width: 1200
Flags: HMW
TeX: 84 0
LayerCount: 2
Fore
SplineSet
775 190 m 0
 775 55 1082 -105 1098 -105 c 0
 1102 -105 1106 -101 1106 -97 c 0
 1106 -81 942 225 807 225 c 0
 793 225 775 204 775 190 c 0
750 173 m 0
 750 218 782 250 827 250 c 0
 952 250 1138 -70 1138 -120 c 0
 1138 -130 1130 -138 1120 -138 c 0
 1070 -138 750 48 750 173 c 0
425 190 m 0
 425 204 407 225 393 225 c 0
 258 225 94 -81 94 -97 c 0
 94 -101 98 -105 102 -105 c 0
 118 -105 425 55 425 190 c 0
450 173 m 0
 450 48 130 -138 80 -138 c 0
 70 -138 62 -130 62 -120 c 0
 62 -70 248 250 373 250 c 0
 418 250 450 218 450 173 c 0
1200 -105 m 1
 1146 53 1124 157 1124 223 c 0
 1124 299 1154 325 1200 325 c 1
 1200 305 l 1
 1171 305 1156 276 1156 219 c 0
 1156 162 1171 79 1200 -30 c 1
 1200 -105 l 1
0 -105 m 1
 0 -30 l 1
 29 79 44 162 44 219 c 0
 44 276 29 305 0 305 c 1
 0 325 l 1
 46 325 76 299 76 223 c 0
 76 157 54 53 0 -105 c 1
1200 -115 m 1
 1200 -145 l 0
 1170 -145 1145 -170 1145 -200 c 0
 1115 -200 l 1
 1115 -153 1153 -115 1200 -115 c 1
0 -115 m 1
 47 -115 85 -153 85 -200 c 1
 55 -200 l 0
 55 -170 30 -145 0 -145 c 0
 0 -115 l 1
95 -200 m 1
 253 -146 357 -124 423 -124 c 0
 499 -124 525 -154 525 -200 c 1
 505 -200 l 1
 505 -171 476 -156 419 -156 c 0
 362 -156 279 -171 170 -200 c 1
 95 -200 l 1
1105 -200 m 1
 1030 -200 l 1
 921 -171 838 -156 781 -156 c 0
 724 -156 695 -171 695 -200 c 1
 675 -200 l 1
 675 -154 701 -124 777 -124 c 0
 843 -124 947 -146 1105 -200 c 1
EndSplineSet
Validated: 1
EndChar

StartChar: A
Encoding: 65 65 27
Width: 1200
Flags: HMW
TeX: 65 0
LayerCount: 2
Fore
SplineSet
788 -30 m 4
 923 -30 1083 277 1083 293 c 4
 1083 297 1079 301 1075 301 c 4
 1059 301 753 137 753 2 c 4
 753 -12 774 -30 788 -30 c 4
805 -55 m 4
 760 -55 728 -23 728 22 c 4
 728 147 1048 333 1098 333 c 4
 1108 333 1116 325 1116 315 c 4
 1116 265 930 -55 805 -55 c 4
788 830 m 4
 774 830 753 812 753 798 c 4
 753 663 1059 499 1075 499 c 4
 1079 499 1083 503 1083 507 c 4
 1083 523 923 830 788 830 c 4
805 855 m 4
 930 855 1116 535 1116 485 c 4
 1116 475 1108 467 1098 467 c 4
 1048 467 728 653 728 778 c 4
 728 823 760 855 805 855 c 4
676 400 m 5
 676 446 702 476 778 476 c 4
 844 476 917 454 1075 400 c 5
 917 346 844 324 778 324 c 4
 702 324 676 354 676 400 c 5
696 400 m 5
 696 371 725 356 782 356 c 4
 839 356 891 371 1000 400 c 5
 891 429 839 444 782 444 c 4
 725 444 696 429 696 400 c 5
1190 -145 m 4
 1165 -145 1145 -170 1145 -200 c 4
 1115 -200 l 5
 1115 -153 1143 -120 1165 -120 c 13
 1165 300 l 29
 1190 300 l 29
 1190 -145 l 4
1129 313 m 5
 1157 302 l 5
 1068 79 l 5
 1040 90 l 5
 1129 313 l 5
1082 374 m 5
 1094 347 l 5
 873 253 l 5
 861 280 l 5
 1082 374 l 5
1129 487 m 5
 1040 710 l 5
 1068 721 l 5
 1157 498 l 5
 1129 487 l 5
1082 426 m 5
 861 520 l 5
 873 547 l 5
 1094 453 l 5
 1082 426 l 5
1165 375 m 4
 1151 375 1140 386 1140 400 c 4
 1140 414 1151 425 1165 425 c 4
 1179 425 1190 414 1190 400 c 4
 1190 386 1179 375 1165 375 c 4
1115 -200 m 1029
1105 1000 m 5
 947 946 843 924 777 924 c 4
 701 924 675 954 675 1000 c 5
 695 1000 l 5
 695 971 724 956 781 956 c 4
 838 956 921 971 1030 1000 c 5
 1105 1000 l 5
1190 945 m 4
 1190 500 l 29
 1165 500 l 29
 1165 920 l 21
 1143 920 1115 953 1115 1000 c 5
 1145 1000 l 4
 1145 970 1165 945 1190 945 c 4
1105 -200 m 5
 1030 -200 l 5
 921 -171 838 -156 781 -156 c 4
 724 -156 695 -171 695 -200 c 5
 675 -200 l 5
 675 -154 701 -124 777 -124 c 4
 843 -124 947 -146 1105 -200 c 5
EndSplineSet
Validated: 1
EndChar

StartChar: D
Encoding: 68 68 28
Width: 1200
Flags: HMW
TeX: 68 0
LayerCount: 2
Fore
SplineSet
412 -30 m 4
 426 -30 447 -12 447 2 c 4
 447 137 141 301 125 301 c 4
 121 301 117 297 117 293 c 4
 117 277 277 -30 412 -30 c 4
395 -55 m 4
 270 -55 84 265 84 315 c 4
 84 325 92 333 102 333 c 4
 152 333 472 147 472 22 c 4
 472 -23 440 -55 395 -55 c 4
412 830 m 4
 277 830 117 523 117 507 c 4
 117 503 121 499 125 499 c 4
 141 499 447 663 447 798 c 4
 447 812 426 830 412 830 c 4
395 855 m 4
 440 855 472 823 472 778 c 4
 472 653 152 467 102 467 c 4
 92 467 84 475 84 485 c 4
 84 535 270 855 395 855 c 4
524 400 m 5
 524 354 498 324 422 324 c 4
 356 324 283 346 125 400 c 5
 283 454 356 476 422 476 c 4
 498 476 524 446 524 400 c 5
504 400 m 5
 504 429 475 444 418 444 c 4
 361 444 309 429 200 400 c 5
 309 371 361 356 418 356 c 4
 475 356 504 371 504 400 c 5
10 -145 m 4
 10 300 l 29
 35 300 l 29
 35 -120 l 21
 57 -120 85 -153 85 -200 c 5
 55 -200 l 4
 55 -170 35 -145 10 -145 c 4
71 313 m 5
 160 90 l 5
 132 79 l 5
 43 302 l 5
 71 313 l 5
118 374 m 5
 339 280 l 5
 327 253 l 5
 106 347 l 5
 118 374 l 5
71 487 m 5
 43 498 l 5
 132 721 l 5
 160 710 l 5
 71 487 l 5
118 426 m 5
 106 453 l 5
 327 547 l 5
 339 520 l 5
 118 426 l 5
35 375 m 4
 21 375 10 386 10 400 c 4
 10 414 21 425 35 425 c 4
 49 425 60 414 60 400 c 4
 60 386 49 375 35 375 c 4
85 -200 m 1029
95 1000 m 5
 170 1000 l 5
 279 971 362 956 419 956 c 4
 476 956 505 971 505 1000 c 5
 525 1000 l 5
 525 954 499 924 423 924 c 4
 357 924 253 946 95 1000 c 5
10 945 m 4
 35 945 55 970 55 1000 c 4
 85 1000 l 5
 85 953 57 920 35 920 c 13
 35 500 l 29
 10 500 l 29
 10 945 l 4
95 -200 m 5
 253 -146 357 -124 423 -124 c 4
 499 -124 525 -154 525 -200 c 5
 505 -200 l 5
 505 -171 476 -156 419 -156 c 4
 362 -156 279 -171 170 -200 c 5
 95 -200 l 5
EndSplineSet
Validated: 1
EndChar

StartChar: W
Encoding: 87 87 29
Width: 1200
Flags: HMW
TeX: 87 0
LayerCount: 2
Fore
SplineSet
170 212 m 4
 170 77 477 -83 493 -83 c 4
 497 -83 501 -79 501 -75 c 4
 501 -59 337 247 202 247 c 4
 188 247 170 226 170 212 c 4
145 195 m 4
 145 240 177 272 222 272 c 4
 347 272 533 -48 533 -98 c 4
 533 -108 525 -116 515 -116 c 4
 465 -116 145 70 145 195 c 4
1030 212 m 4
 1030 226 1012 247 998 247 c 4
 863 247 699 -59 699 -75 c 4
 699 -79 703 -83 707 -83 c 4
 723 -83 1030 77 1030 212 c 4
1055 195 m 4
 1055 70 735 -116 685 -116 c 4
 675 -116 667 -108 667 -98 c 4
 667 -48 853 272 978 272 c 4
 1023 272 1055 240 1055 195 c 4
600 324 m 5
 646 324 676 298 676 222 c 4
 676 156 654 83 600 -75 c 5
 546 83 524 156 524 222 c 4
 524 298 554 324 600 324 c 5
600 304 m 5
 571 304 556 275 556 218 c 4
 556 161 571 109 600 0 c 5
 629 109 644 161 644 218 c 4
 644 275 629 304 600 304 c 5
55 -190 m 4
 55 -165 30 -145 0 -145 c 4
 0 -115 l 5
 47 -115 80 -143 80 -165 c 13
 500 -165 l 29
 500 -190 l 29
 55 -190 l 4
513 -129 m 5
 502 -157 l 5
 279 -68 l 5
 290 -40 l 5
 513 -129 l 5
574 -82 m 5
 547 -94 l 5
 453 127 l 5
 480 139 l 5
 574 -82 l 5
687 -129 m 5
 910 -40 l 5
 921 -68 l 5
 698 -157 l 5
 687 -129 l 5
626 -82 m 5
 720 139 l 5
 747 127 l 5
 653 -94 l 5
 626 -82 l 5
575 -165 m 4
 575 -151 586 -140 600 -140 c 4
 614 -140 625 -151 625 -165 c 4
 625 -179 614 -190 600 -190 c 4
 586 -190 575 -179 575 -165 c 4
0 -115 m 1029
1200 -105 m 5
 1146 53 1124 157 1124 223 c 4
 1124 299 1154 325 1200 325 c 5
 1200 305 l 5
 1171 305 1156 276 1156 219 c 4
 1156 162 1171 79 1200 -30 c 5
 1200 -105 l 5
1145 -190 m 4
 700 -190 l 29
 700 -165 l 29
 1120 -165 l 21
 1120 -143 1153 -115 1200 -115 c 5
 1200 -145 l 4
 1170 -145 1145 -165 1145 -190 c 4
0 -105 m 5
 0 -30 l 5
 29 79 44 162 44 219 c 4
 44 276 29 305 0 305 c 5
 0 325 l 5
 46 325 76 299 76 223 c 4
 76 157 54 53 0 -105 c 5
EndSplineSet
Validated: 1
EndChar

StartChar: X
Encoding: 88 88 30
Width: 1200
Flags: HMW
TeX: 88 0
LayerCount: 2
Fore
SplineSet
170 588 m 4
 170 574 188 553 202 553 c 4
 337 553 501 859 501 875 c 4
 501 879 497 883 493 883 c 4
 477 883 170 723 170 588 c 4
145 605 m 4
 145 730 465 916 515 916 c 4
 525 916 533 908 533 898 c 4
 533 848 347 528 222 528 c 4
 177 528 145 560 145 605 c 4
1030 588 m 4
 1030 723 723 883 707 883 c 4
 703 883 699 879 699 875 c 4
 699 859 863 553 998 553 c 4
 1012 553 1030 574 1030 588 c 4
1055 605 m 4
 1055 560 1023 528 978 528 c 4
 853 528 667 848 667 898 c 4
 667 908 675 916 685 916 c 4
 735 916 1055 730 1055 605 c 4
600 476 m 5
 554 476 524 502 524 578 c 4
 524 644 546 717 600 875 c 5
 654 717 676 644 676 578 c 4
 676 502 646 476 600 476 c 5
600 496 m 5
 629 496 644 525 644 582 c 4
 644 639 629 691 600 800 c 5
 571 691 556 639 556 582 c 4
 556 525 571 496 600 496 c 5
55 990 m 4
 500 990 l 29
 500 965 l 29
 80 965 l 21
 80 943 47 915 0 915 c 5
 0 945 l 4
 30 945 55 965 55 990 c 4
513 929 m 5
 290 840 l 5
 279 868 l 5
 502 957 l 5
 513 929 l 5
574 882 m 5
 480 661 l 5
 453 673 l 5
 547 894 l 5
 574 882 l 5
687 929 m 5
 698 957 l 5
 921 868 l 5
 910 840 l 5
 687 929 l 5
626 882 m 5
 653 894 l 5
 747 673 l 5
 720 661 l 5
 626 882 l 5
575 965 m 4
 575 979 586 990 600 990 c 4
 614 990 625 979 625 965 c 4
 625 951 614 940 600 940 c 4
 586 940 575 951 575 965 c 4
0 915 m 1029
1200 905 m 5
 1200 830 l 5
 1171 721 1156 638 1156 581 c 4
 1156 524 1171 495 1200 495 c 5
 1200 475 l 5
 1154 475 1124 501 1124 577 c 4
 1124 643 1146 747 1200 905 c 5
1145 990 m 4
 1145 965 1170 945 1200 945 c 4
 1200 915 l 5
 1153 915 1120 943 1120 965 c 13
 700 965 l 29
 700 990 l 29
 1145 990 l 4
0 905 m 5
 54 747 76 643 76 577 c 4
 76 501 46 475 0 475 c 5
 0 495 l 5
 29 495 44 524 44 581 c 4
 44 638 29 721 0 830 c 5
 0 905 l 5
EndSplineSet
Validated: 1
EndChar

StartChar: v
Encoding: 118 118 31
Width: 1200
Flags: HMW
TeX: 118 0
LayerCount: 2
Fore
SplineSet
425 190 m 0
 425 204 407 225 393 225 c 0
 258 225 94 -81 94 -97 c 0
 94 -101 98 -105 102 -105 c 0
 118 -105 425 55 425 190 c 0
450 173 m 0
 450 48 130 -138 80 -138 c 0
 70 -138 62 -130 62 -120 c 0
 62 -70 248 250 373 250 c 0
 418 250 450 218 450 173 c 0
0 -105 m 1
 0 -30 l 1
 29 79 44 162 44 219 c 0
 44 276 29 305 0 305 c 1
 0 325 l 1
 46 325 76 299 76 223 c 0
 76 157 54 53 0 -105 c 1
1105 1000 m 1
 947 946 843 924 777 924 c 0
 701 924 675 954 675 1000 c 1
 695 1000 l 1
 695 971 724 956 781 956 c 0
 838 956 921 971 1030 1000 c 1
 1105 1000 l 1
0 -115 m 1
 47 -115 85 -153 85 -200 c 1
 55 -200 l 0
 55 -170 30 -145 0 -145 c 0
 0 -115 l 1
1200 905 m 1
 1200 830 l 1
 1171 721 1156 638 1156 581 c 0
 1156 524 1171 495 1200 495 c 1
 1200 475 l 1
 1154 475 1124 501 1124 577 c 0
 1124 643 1146 747 1200 905 c 1
1200 915 m 1
 1153 915 1115 953 1115 1000 c 1
 1145 1000 l 0
 1145 970 1170 945 1200 945 c 0
 1200 915 l 1
95 -200 m 1
 253 -146 357 -124 423 -124 c 0
 499 -124 525 -154 525 -200 c 1
 505 -200 l 1
 505 -171 476 -156 419 -156 c 0
 362 -156 279 -171 170 -200 c 1
 95 -200 l 1
EndSplineSet
Validated: 1
EndChar

StartChar: V
Encoding: 86 86 32
Width: 1200
Flags: HMW
TeX: 86 0
LayerCount: 2
Fore
SplineSet
775 610 m 0
 775 596 793 575 807 575 c 0
 942 575 1106 881 1106 897 c 0
 1106 901 1102 905 1098 905 c 0
 1082 905 775 745 775 610 c 0
750 627 m 0
 750 752 1070 938 1120 938 c 0
 1130 938 1138 930 1138 920 c 0
 1138 870 952 550 827 550 c 0
 782 550 750 582 750 627 c 0
0 -105 m 1
 0 -30 l 1
 29 79 44 162 44 219 c 0
 44 276 29 305 0 305 c 1
 0 325 l 1
 46 325 76 299 76 223 c 0
 76 157 54 53 0 -105 c 1
1105 1000 m 1
 947 946 843 924 777 924 c 0
 701 924 675 954 675 1000 c 1
 695 1000 l 1
 695 971 724 956 781 956 c 0
 838 956 921 971 1030 1000 c 1
 1105 1000 l 1
0 -115 m 1
 47 -115 85 -153 85 -200 c 1
 55 -200 l 0
 55 -170 30 -145 0 -145 c 0
 0 -115 l 1
1200 905 m 1
 1200 830 l 1
 1171 721 1156 638 1156 581 c 0
 1156 524 1171 495 1200 495 c 1
 1200 475 l 1
 1154 475 1124 501 1124 577 c 0
 1124 643 1146 747 1200 905 c 1
1200 915 m 1
 1153 915 1115 953 1115 1000 c 1
 1145 1000 l 0
 1145 970 1170 945 1200 945 c 0
 1200 915 l 1
95 -200 m 1
 253 -146 357 -124 423 -124 c 0
 499 -124 525 -154 525 -200 c 1
 505 -200 l 1
 505 -171 476 -156 419 -156 c 0
 362 -156 279 -171 170 -200 c 1
 95 -200 l 1
EndSplineSet
Validated: 1
EndChar

StartChar: n
Encoding: 110 110 33
Width: 1200
Flags: HMW
TeX: 110 0
LayerCount: 2
Fore
SplineSet
775 190 m 0
 775 55 1082 -105 1098 -105 c 0
 1102 -105 1106 -101 1106 -97 c 0
 1106 -81 942 225 807 225 c 0
 793 225 775 204 775 190 c 0
750 173 m 0
 750 218 782 250 827 250 c 0
 952 250 1138 -70 1138 -120 c 0
 1138 -130 1130 -138 1120 -138 c 0
 1070 -138 750 48 750 173 c 0
1200 -105 m 1
 1146 53 1124 157 1124 223 c 0
 1124 299 1154 325 1200 325 c 1
 1200 305 l 1
 1171 305 1156 276 1156 219 c 0
 1156 162 1171 79 1200 -30 c 1
 1200 -105 l 1
95 1000 m 1
 170 1000 l 1
 279 971 362 956 419 956 c 0
 476 956 505 971 505 1000 c 1
 525 1000 l 1
 525 954 499 924 423 924 c 0
 357 924 253 946 95 1000 c 1
1200 -115 m 1
 1200 -145 l 0
 1170 -145 1145 -170 1145 -200 c 0
 1115 -200 l 1
 1115 -153 1153 -115 1200 -115 c 1
0 915 m 1
 0 945 l 0
 30 945 55 970 55 1000 c 0
 85 1000 l 1
 85 953 47 915 0 915 c 1
0 905 m 1
 54 747 76 643 76 577 c 0
 76 501 46 475 0 475 c 1
 0 495 l 1
 29 495 44 524 44 581 c 0
 44 638 29 721 0 830 c 1
 0 905 l 1
1105 -200 m 1
 1030 -200 l 1
 921 -171 838 -156 781 -156 c 0
 724 -156 695 -171 695 -200 c 1
 675 -200 l 1
 675 -154 701 -124 777 -124 c 0
 843 -124 947 -146 1105 -200 c 1
EndSplineSet
Validated: 1
EndChar

StartChar: N
Encoding: 78 78 34
Width: 1200
Flags: HMW
TeX: 78 0
LayerCount: 2
Fore
SplineSet
425 610 m 0
 425 745 118 905 102 905 c 0
 98 905 94 901 94 897 c 0
 94 881 258 575 393 575 c 0
 407 575 425 596 425 610 c 0
450 627 m 0
 450 582 418 550 373 550 c 0
 248 550 62 870 62 920 c 0
 62 930 70 938 80 938 c 0
 130 938 450 752 450 627 c 0
1200 -105 m 1
 1146 53 1124 157 1124 223 c 0
 1124 299 1154 325 1200 325 c 1
 1200 305 l 1
 1171 305 1156 276 1156 219 c 0
 1156 162 1171 79 1200 -30 c 1
 1200 -105 l 1
95 1000 m 1
 170 1000 l 1
 279 971 362 956 419 956 c 0
 476 956 505 971 505 1000 c 1
 525 1000 l 1
 525 954 499 924 423 924 c 0
 357 924 253 946 95 1000 c 1
1200 -115 m 1
 1200 -145 l 0
 1170 -145 1145 -170 1145 -200 c 0
 1115 -200 l 1
 1115 -153 1153 -115 1200 -115 c 1
0 915 m 1
 0 945 l 0
 30 945 55 970 55 1000 c 0
 85 1000 l 1
 85 953 47 915 0 915 c 1
0 905 m 1
 54 747 76 643 76 577 c 0
 76 501 46 475 0 475 c 1
 0 495 l 1
 29 495 44 524 44 581 c 0
 44 638 29 721 0 830 c 1
 0 905 l 1
1105 -200 m 1
 1030 -200 l 1
 921 -171 838 -156 781 -156 c 0
 724 -156 695 -171 695 -200 c 1
 675 -200 l 1
 675 -154 701 -124 777 -124 c 0
 843 -124 947 -146 1105 -200 c 1
EndSplineSet
Validated: 1
EndChar

StartChar: u
Encoding: 117 117 35
Width: 1200
Flags: HMW
LayerCount: 2
Fore
SplineSet
1200 -105 m 1
 1146 53 1124 157 1124 223 c 0
 1124 299 1154 325 1200 325 c 1
 1200 305 l 1
 1171 305 1156 276 1156 219 c 0
 1156 162 1171 79 1200 -30 c 1
 1200 -105 l 1
0 -105 m 1
 0 -30 l 1
 29 79 44 162 44 219 c 0
 44 276 29 305 0 305 c 1
 0 325 l 1
 46 325 76 299 76 223 c 0
 76 157 54 53 0 -105 c 1
1105 1000 m 1
 947 946 843 924 777 924 c 0
 701 924 675 954 675 1000 c 1
 695 1000 l 1
 695 971 724 956 781 956 c 0
 838 956 921 971 1030 1000 c 1
 1105 1000 l 1
1200 -115 m 1
 1200 -145 l 0
 1170 -145 1145 -170 1145 -200 c 0
 1115 -200 l 1
 1115 -153 1153 -115 1200 -115 c 1
0 -115 m 1
 47 -115 85 -153 85 -200 c 1
 55 -200 l 0
 55 -170 30 -145 0 -145 c 0
 0 -115 l 1
1200 905 m 1
 1200 830 l 1
 1171 721 1156 638 1156 581 c 0
 1156 524 1171 495 1200 495 c 1
 1200 475 l 1
 1154 475 1124 501 1124 577 c 0
 1124 643 1146 747 1200 905 c 1
1200 915 m 1
 1153 915 1115 953 1115 1000 c 1
 1145 1000 l 0
 1145 970 1170 945 1200 945 c 0
 1200 915 l 1
95 -200 m 1
 253 -146 357 -124 423 -124 c 0
 499 -124 525 -154 525 -200 c 1
 505 -200 l 1
 505 -171 476 -156 419 -156 c 0
 362 -156 279 -171 170 -200 c 1
 95 -200 l 1
1105 -200 m 1
 1030 -200 l 1
 921 -171 838 -156 781 -156 c 0
 724 -156 695 -171 695 -200 c 1
 675 -200 l 1
 675 -154 701 -124 777 -124 c 0
 843 -124 947 -146 1105 -200 c 1
EndSplineSet
Validated: 1
EndChar

StartChar: o
Encoding: 111 111 36
Width: 1200
Flags: HMW
LayerCount: 2
Fore
SplineSet
1200 -105 m 1
 1146 53 1124 157 1124 223 c 0
 1124 299 1154 325 1200 325 c 1
 1200 305 l 1
 1171 305 1156 276 1156 219 c 0
 1156 162 1171 79 1200 -30 c 1
 1200 -105 l 1
0 -105 m 1
 0 -30 l 1
 29 79 44 162 44 219 c 0
 44 276 29 305 0 305 c 1
 0 325 l 1
 46 325 76 299 76 223 c 0
 76 157 54 53 0 -105 c 1
95 1000 m 1
 170 1000 l 1
 279 971 362 956 419 956 c 0
 476 956 505 971 505 1000 c 1
 525 1000 l 1
 525 954 499 924 423 924 c 0
 357 924 253 946 95 1000 c 1
1200 -115 m 1
 1200 -145 l 0
 1170 -145 1145 -170 1145 -200 c 0
 1115 -200 l 1
 1115 -153 1153 -115 1200 -115 c 1
0 -115 m 1
 47 -115 85 -153 85 -200 c 1
 55 -200 l 0
 55 -170 30 -145 0 -145 c 0
 0 -115 l 1
0 915 m 1
 0 945 l 0
 30 945 55 970 55 1000 c 0
 85 1000 l 1
 85 953 47 915 0 915 c 1
95 -200 m 1
 253 -146 357 -124 423 -124 c 0
 499 -124 525 -154 525 -200 c 1
 505 -200 l 1
 505 -171 476 -156 419 -156 c 0
 362 -156 279 -171 170 -200 c 1
 95 -200 l 1
0 905 m 1
 54 747 76 643 76 577 c 0
 76 501 46 475 0 475 c 1
 0 495 l 1
 29 495 44 524 44 581 c 0
 44 638 29 721 0 830 c 1
 0 905 l 1
1105 -200 m 1
 1030 -200 l 1
 921 -171 838 -156 781 -156 c 0
 724 -156 695 -171 695 -200 c 1
 675 -200 l 1
 675 -154 701 -124 777 -124 c 0
 843 -124 947 -146 1105 -200 c 1
EndSplineSet
Validated: 1
EndChar

StartChar: m
Encoding: 109 109 37
Width: 1200
Flags: HMW
LayerCount: 2
Fore
SplineSet
1200 -105 m 1
 1146 53 1124 157 1124 223 c 0
 1124 299 1154 325 1200 325 c 1
 1200 305 l 1
 1171 305 1156 276 1156 219 c 0
 1156 162 1171 79 1200 -30 c 1
 1200 -105 l 1
95 1000 m 1
 170 1000 l 1
 279 971 362 956 419 956 c 0
 476 956 505 971 505 1000 c 1
 525 1000 l 1
 525 954 499 924 423 924 c 0
 357 924 253 946 95 1000 c 1
1105 1000 m 1
 947 946 843 924 777 924 c 0
 701 924 675 954 675 1000 c 1
 695 1000 l 1
 695 971 724 956 781 956 c 0
 838 956 921 971 1030 1000 c 1
 1105 1000 l 1
1200 -115 m 1
 1200 -145 l 0
 1170 -145 1145 -170 1145 -200 c 0
 1115 -200 l 1
 1115 -153 1153 -115 1200 -115 c 1
0 915 m 1
 0 945 l 0
 30 945 55 970 55 1000 c 0
 85 1000 l 1
 85 953 47 915 0 915 c 1
1200 905 m 1
 1200 830 l 1
 1171 721 1156 638 1156 581 c 0
 1156 524 1171 495 1200 495 c 1
 1200 475 l 1
 1154 475 1124 501 1124 577 c 0
 1124 643 1146 747 1200 905 c 1
1200 915 m 1
 1153 915 1115 953 1115 1000 c 1
 1145 1000 l 0
 1145 970 1170 945 1200 945 c 0
 1200 915 l 1
0 905 m 1
 54 747 76 643 76 577 c 0
 76 501 46 475 0 475 c 1
 0 495 l 1
 29 495 44 524 44 581 c 0
 44 638 29 721 0 830 c 1
 0 905 l 1
1105 -200 m 1
 1030 -200 l 1
 921 -171 838 -156 781 -156 c 0
 724 -156 695 -171 695 -200 c 1
 675 -200 l 1
 675 -154 701 -124 777 -124 c 0
 843 -124 947 -146 1105 -200 c 1
EndSplineSet
Validated: 1
EndChar

StartChar: greater
Encoding: 62 62 38
Width: 1200
Flags: HMW
LayerCount: 2
Fore
SplineSet
775 610 m 0
 775 596 793 575 807 575 c 0
 942 575 1106 881 1106 897 c 0
 1106 901 1102 905 1098 905 c 0
 1082 905 775 745 775 610 c 0
750 627 m 0
 750 752 1070 938 1120 938 c 0
 1130 938 1138 930 1138 920 c 0
 1138 870 952 550 827 550 c 0
 782 550 750 582 750 627 c 0
425 610 m 0
 425 745 118 905 102 905 c 0
 98 905 94 901 94 897 c 0
 94 881 258 575 393 575 c 0
 407 575 425 596 425 610 c 0
450 627 m 0
 450 582 418 550 373 550 c 0
 248 550 62 870 62 920 c 0
 62 930 70 938 80 938 c 0
 130 938 450 752 450 627 c 0
425 190 m 0
 425 204 407 225 393 225 c 0
 258 225 94 -81 94 -97 c 0
 94 -101 98 -105 102 -105 c 0
 118 -105 425 55 425 190 c 0
450 173 m 0
 450 48 130 -138 80 -138 c 0
 70 -138 62 -130 62 -120 c 0
 62 -70 248 250 373 250 c 0
 418 250 450 218 450 173 c 0
0 -105 m 1
 0 -30 l 1
 29 79 44 162 44 219 c 0
 44 276 29 305 0 305 c 1
 0 325 l 1
 46 325 76 299 76 223 c 0
 76 157 54 53 0 -105 c 1
95 1000 m 1
 170 1000 l 1
 279 971 362 956 419 956 c 0
 476 956 505 971 505 1000 c 1
 525 1000 l 1
 525 954 499 924 423 924 c 0
 357 924 253 946 95 1000 c 1
1105 1000 m 1
 947 946 843 924 777 924 c 0
 701 924 675 954 675 1000 c 1
 695 1000 l 1
 695 971 724 956 781 956 c 0
 838 956 921 971 1030 1000 c 1
 1105 1000 l 1
0 -115 m 1
 47 -115 85 -153 85 -200 c 1
 55 -200 l 0
 55 -170 30 -145 0 -145 c 0
 0 -115 l 1
0 915 m 1
 0 945 l 0
 30 945 55 970 55 1000 c 0
 85 1000 l 1
 85 953 47 915 0 915 c 1
1200 905 m 1
 1200 830 l 1
 1171 721 1156 638 1156 581 c 0
 1156 524 1171 495 1200 495 c 1
 1200 475 l 1
 1154 475 1124 501 1124 577 c 0
 1124 643 1146 747 1200 905 c 1
1200 915 m 1
 1153 915 1115 953 1115 1000 c 1
 1145 1000 l 0
 1145 970 1170 945 1200 945 c 0
 1200 915 l 1
95 -200 m 1
 253 -146 357 -124 423 -124 c 0
 499 -124 525 -154 525 -200 c 1
 505 -200 l 1
 505 -171 476 -156 419 -156 c 0
 362 -156 279 -171 170 -200 c 1
 95 -200 l 1
0 905 m 1
 54 747 76 643 76 577 c 0
 76 501 46 475 0 475 c 1
 0 495 l 1
 29 495 44 524 44 581 c 0
 44 638 29 721 0 830 c 1
 0 905 l 1
EndSplineSet
Validated: 1
EndChar

StartChar: period
Encoding: 46 46 39
Width: 1200
Flags: HMW
LayerCount: 2
Fore
SplineSet
0 -105 m 1
 0 -30 l 1
 29 79 44 162 44 219 c 0
 44 276 29 305 0 305 c 1
 0 325 l 1
 46 325 76 299 76 223 c 0
 76 157 54 53 0 -105 c 1
95 1000 m 1
 170 1000 l 1
 279 971 362 956 419 956 c 0
 476 956 505 971 505 1000 c 1
 525 1000 l 1
 525 954 499 924 423 924 c 0
 357 924 253 946 95 1000 c 1
1105 1000 m 1
 947 946 843 924 777 924 c 0
 701 924 675 954 675 1000 c 1
 695 1000 l 1
 695 971 724 956 781 956 c 0
 838 956 921 971 1030 1000 c 1
 1105 1000 l 1
0 -115 m 1
 47 -115 85 -153 85 -200 c 1
 55 -200 l 0
 55 -170 30 -145 0 -145 c 0
 0 -115 l 1
0 915 m 1
 0 945 l 0
 30 945 55 970 55 1000 c 0
 85 1000 l 1
 85 953 47 915 0 915 c 1
1200 905 m 1
 1200 830 l 1
 1171 721 1156 638 1156 581 c 0
 1156 524 1171 495 1200 495 c 1
 1200 475 l 1
 1154 475 1124 501 1124 577 c 0
 1124 643 1146 747 1200 905 c 1
1200 915 m 1
 1153 915 1115 953 1115 1000 c 1
 1145 1000 l 0
 1145 970 1170 945 1200 945 c 0
 1200 915 l 1
95 -200 m 1
 253 -146 357 -124 423 -124 c 0
 499 -124 525 -154 525 -200 c 1
 505 -200 l 1
 505 -171 476 -156 419 -156 c 0
 362 -156 279 -171 170 -200 c 1
 95 -200 l 1
0 905 m 1
 54 747 76 643 76 577 c 0
 76 501 46 475 0 475 c 1
 0 495 l 1
 29 495 44 524 44 581 c 0
 44 638 29 721 0 830 c 1
 0 905 l 1
EndSplineSet
Validated: 1
EndChar

StartChar: U
Encoding: 85 85 40
Width: 1200
Flags: HMW
LayerCount: 2
Fore
SplineSet
775 610 m 0
 775 596 793 575 807 575 c 0
 942 575 1106 881 1106 897 c 0
 1106 901 1102 905 1098 905 c 0
 1082 905 775 745 775 610 c 0
750 627 m 0
 750 752 1070 938 1120 938 c 0
 1130 938 1138 930 1138 920 c 0
 1138 870 952 550 827 550 c 0
 782 550 750 582 750 627 c 0
775 190 m 0
 775 55 1082 -105 1098 -105 c 0
 1102 -105 1106 -101 1106 -97 c 0
 1106 -81 942 225 807 225 c 0
 793 225 775 204 775 190 c 0
750 173 m 0
 750 218 782 250 827 250 c 0
 952 250 1138 -70 1138 -120 c 0
 1138 -130 1130 -138 1120 -138 c 0
 1070 -138 750 48 750 173 c 0
425 190 m 0
 425 204 407 225 393 225 c 0
 258 225 94 -81 94 -97 c 0
 94 -101 98 -105 102 -105 c 0
 118 -105 425 55 425 190 c 0
450 173 m 0
 450 48 130 -138 80 -138 c 0
 70 -138 62 -130 62 -120 c 0
 62 -70 248 250 373 250 c 0
 418 250 450 218 450 173 c 0
1200 -105 m 1
 1146 53 1124 157 1124 223 c 0
 1124 299 1154 325 1200 325 c 1
 1200 305 l 1
 1171 305 1156 276 1156 219 c 0
 1156 162 1171 79 1200 -30 c 1
 1200 -105 l 1
0 -105 m 1
 0 -30 l 1
 29 79 44 162 44 219 c 0
 44 276 29 305 0 305 c 1
 0 325 l 1
 46 325 76 299 76 223 c 0
 76 157 54 53 0 -105 c 1
1105 1000 m 1
 947 946 843 924 777 924 c 0
 701 924 675 954 675 1000 c 1
 695 1000 l 1
 695 971 724 956 781 956 c 0
 838 956 921 971 1030 1000 c 1
 1105 1000 l 1
1200 -115 m 1
 1200 -145 l 0
 1170 -145 1145 -170 1145 -200 c 0
 1115 -200 l 1
 1115 -153 1153 -115 1200 -115 c 1
0 -115 m 1
 47 -115 85 -153 85 -200 c 1
 55 -200 l 0
 55 -170 30 -145 0 -145 c 0
 0 -115 l 1
1200 905 m 1
 1200 830 l 1
 1171 721 1156 638 1156 581 c 0
 1156 524 1171 495 1200 495 c 1
 1200 475 l 1
 1154 475 1124 501 1124 577 c 0
 1124 643 1146 747 1200 905 c 1
1200 915 m 1
 1153 915 1115 953 1115 1000 c 1
 1145 1000 l 0
 1145 970 1170 945 1200 945 c 0
 1200 915 l 1
95 -200 m 1
 253 -146 357 -124 423 -124 c 0
 499 -124 525 -154 525 -200 c 1
 505 -200 l 1
 505 -171 476 -156 419 -156 c 0
 362 -156 279 -171 170 -200 c 1
 95 -200 l 1
1105 -200 m 1
 1030 -200 l 1
 921 -171 838 -156 781 -156 c 0
 724 -156 695 -171 695 -200 c 1
 675 -200 l 1
 675 -154 701 -124 777 -124 c 0
 843 -124 947 -146 1105 -200 c 1
EndSplineSet
Validated: 1
EndChar

StartChar: O
Encoding: 79 79 41
Width: 1200
Flags: HMW
LayerCount: 2
Fore
SplineSet
425 610 m 0
 425 745 118 905 102 905 c 0
 98 905 94 901 94 897 c 0
 94 881 258 575 393 575 c 0
 407 575 425 596 425 610 c 0
450 627 m 0
 450 582 418 550 373 550 c 0
 248 550 62 870 62 920 c 0
 62 930 70 938 80 938 c 0
 130 938 450 752 450 627 c 0
775 190 m 0
 775 55 1082 -105 1098 -105 c 0
 1102 -105 1106 -101 1106 -97 c 0
 1106 -81 942 225 807 225 c 0
 793 225 775 204 775 190 c 0
750 173 m 0
 750 218 782 250 827 250 c 0
 952 250 1138 -70 1138 -120 c 0
 1138 -130 1130 -138 1120 -138 c 0
 1070 -138 750 48 750 173 c 0
425 190 m 0
 425 204 407 225 393 225 c 0
 258 225 94 -81 94 -97 c 0
 94 -101 98 -105 102 -105 c 0
 118 -105 425 55 425 190 c 0
450 173 m 0
 450 48 130 -138 80 -138 c 0
 70 -138 62 -130 62 -120 c 0
 62 -70 248 250 373 250 c 0
 418 250 450 218 450 173 c 0
1200 -105 m 1
 1146 53 1124 157 1124 223 c 0
 1124 299 1154 325 1200 325 c 1
 1200 305 l 1
 1171 305 1156 276 1156 219 c 0
 1156 162 1171 79 1200 -30 c 1
 1200 -105 l 1
0 -105 m 1
 0 -30 l 1
 29 79 44 162 44 219 c 0
 44 276 29 305 0 305 c 1
 0 325 l 1
 46 325 76 299 76 223 c 0
 76 157 54 53 0 -105 c 1
95 1000 m 1
 170 1000 l 1
 279 971 362 956 419 956 c 0
 476 956 505 971 505 1000 c 1
 525 1000 l 1
 525 954 499 924 423 924 c 0
 357 924 253 946 95 1000 c 1
1200 -115 m 1
 1200 -145 l 0
 1170 -145 1145 -170 1145 -200 c 0
 1115 -200 l 1
 1115 -153 1153 -115 1200 -115 c 1
0 -115 m 1
 47 -115 85 -153 85 -200 c 1
 55 -200 l 0
 55 -170 30 -145 0 -145 c 0
 0 -115 l 1
0 915 m 1
 0 945 l 0
 30 945 55 970 55 1000 c 0
 85 1000 l 1
 85 953 47 915 0 915 c 1
95 -200 m 1
 253 -146 357 -124 423 -124 c 0
 499 -124 525 -154 525 -200 c 1
 505 -200 l 1
 505 -171 476 -156 419 -156 c 0
 362 -156 279 -171 170 -200 c 1
 95 -200 l 1
0 905 m 1
 54 747 76 643 76 577 c 0
 76 501 46 475 0 475 c 1
 0 495 l 1
 29 495 44 524 44 581 c 0
 44 638 29 721 0 830 c 1
 0 905 l 1
1105 -200 m 1
 1030 -200 l 1
 921 -171 838 -156 781 -156 c 0
 724 -156 695 -171 695 -200 c 1
 675 -200 l 1
 675 -154 701 -124 777 -124 c 0
 843 -124 947 -146 1105 -200 c 1
EndSplineSet
Validated: 1
EndChar

StartChar: M
Encoding: 77 77 42
Width: 1200
Flags: HMW
LayerCount: 2
Fore
SplineSet
775 610 m 0
 775 596 793 575 807 575 c 0
 942 575 1106 881 1106 897 c 0
 1106 901 1102 905 1098 905 c 0
 1082 905 775 745 775 610 c 0
750 627 m 0
 750 752 1070 938 1120 938 c 0
 1130 938 1138 930 1138 920 c 0
 1138 870 952 550 827 550 c 0
 782 550 750 582 750 627 c 0
425 610 m 0
 425 745 118 905 102 905 c 0
 98 905 94 901 94 897 c 0
 94 881 258 575 393 575 c 0
 407 575 425 596 425 610 c 0
450 627 m 0
 450 582 418 550 373 550 c 0
 248 550 62 870 62 920 c 0
 62 930 70 938 80 938 c 0
 130 938 450 752 450 627 c 0
775 190 m 0
 775 55 1082 -105 1098 -105 c 0
 1102 -105 1106 -101 1106 -97 c 0
 1106 -81 942 225 807 225 c 0
 793 225 775 204 775 190 c 0
750 173 m 0
 750 218 782 250 827 250 c 0
 952 250 1138 -70 1138 -120 c 0
 1138 -130 1130 -138 1120 -138 c 0
 1070 -138 750 48 750 173 c 0
1200 -105 m 1
 1146 53 1124 157 1124 223 c 0
 1124 299 1154 325 1200 325 c 1
 1200 305 l 1
 1171 305 1156 276 1156 219 c 0
 1156 162 1171 79 1200 -30 c 1
 1200 -105 l 1
95 1000 m 1
 170 1000 l 1
 279 971 362 956 419 956 c 0
 476 956 505 971 505 1000 c 1
 525 1000 l 1
 525 954 499 924 423 924 c 0
 357 924 253 946 95 1000 c 1
1105 1000 m 1
 947 946 843 924 777 924 c 0
 701 924 675 954 675 1000 c 1
 695 1000 l 1
 695 971 724 956 781 956 c 0
 838 956 921 971 1030 1000 c 1
 1105 1000 l 1
1200 -115 m 1
 1200 -145 l 0
 1170 -145 1145 -170 1145 -200 c 0
 1115 -200 l 1
 1115 -153 1153 -115 1200 -115 c 1
0 915 m 1
 0 945 l 0
 30 945 55 970 55 1000 c 0
 85 1000 l 1
 85 953 47 915 0 915 c 1
1200 905 m 1
 1200 830 l 1
 1171 721 1156 638 1156 581 c 0
 1156 524 1171 495 1200 495 c 1
 1200 475 l 1
 1154 475 1124 501 1124 577 c 0
 1124 643 1146 747 1200 905 c 1
1200 915 m 1
 1153 915 1115 953 1115 1000 c 1
 1145 1000 l 0
 1145 970 1170 945 1200 945 c 0
 1200 915 l 1
0 905 m 1
 54 747 76 643 76 577 c 0
 76 501 46 475 0 475 c 1
 0 495 l 1
 29 495 44 524 44 581 c 0
 44 638 29 721 0 830 c 1
 0 905 l 1
1105 -200 m 1
 1030 -200 l 1
 921 -171 838 -156 781 -156 c 0
 724 -156 695 -171 695 -200 c 1
 675 -200 l 1
 675 -154 701 -124 777 -124 c 0
 843 -124 947 -146 1105 -200 c 1
EndSplineSet
Validated: 1
EndChar

StartChar: G
Encoding: 71 71 43
Width: 1200
Flags: HMW
LayerCount: 2
Fore
SplineSet
775 610 m 4
 775 596 793 575 807 575 c 4
 942 575 1106 881 1106 897 c 4
 1106 901 1102 905 1098 905 c 4
 1082 905 775 745 775 610 c 4
750 627 m 4
 750 752 1070 938 1120 938 c 4
 1130 938 1138 930 1138 920 c 4
 1138 870 952 550 827 550 c 4
 782 550 750 582 750 627 c 4
425 610 m 4
 425 745 118 905 102 905 c 4
 98 905 94 901 94 897 c 4
 94 881 258 575 393 575 c 4
 407 575 425 596 425 610 c 4
450 627 m 4
 450 582 418 550 373 550 c 4
 248 550 62 870 62 920 c 4
 62 930 70 938 80 938 c 4
 130 938 450 752 450 627 c 4
775 190 m 4
 775 55 1082 -105 1098 -105 c 4
 1102 -105 1106 -101 1106 -97 c 4
 1106 -81 942 225 807 225 c 4
 793 225 775 204 775 190 c 4
750 173 m 4
 750 218 782 250 827 250 c 4
 952 250 1138 -70 1138 -120 c 4
 1138 -130 1130 -138 1120 -138 c 4
 1070 -138 750 48 750 173 c 4
425 190 m 4
 425 204 407 225 393 225 c 4
 258 225 94 -81 94 -97 c 4
 94 -101 98 -105 102 -105 c 4
 118 -105 425 55 425 190 c 4
450 173 m 4
 450 48 130 -138 80 -138 c 4
 70 -138 62 -130 62 -120 c 4
 62 -70 248 250 373 250 c 4
 418 250 450 218 450 173 c 4
1125 400 m 1
 1125 354 1099 324 1023 324 c 0
 957 324 853 346 695 400 c 1
 853 454 957 476 1023 476 c 0
 1099 476 1125 446 1125 400 c 1
1105 400 m 1
 1105 429 1076 444 1019 444 c 0
 962 444 879 429 770 400 c 1
 879 371 962 356 1019 356 c 0
 1076 356 1105 371 1105 400 c 1
75 400 m 1
 75 446 101 476 177 476 c 0
 243 476 347 454 505 400 c 1
 347 346 243 324 177 324 c 0
 101 324 75 354 75 400 c 1
95 400 m 1
 95 371 124 356 181 356 c 0
 238 356 321 371 430 400 c 1
 321 429 238 444 181 444 c 0
 124 444 95 429 95 400 c 1
600 925 m 1
 646 925 676 899 676 823 c 0
 676 757 654 653 600 495 c 1
 546 653 524 757 524 823 c 0
 524 899 554 925 600 925 c 1
600 905 m 1
 571 905 556 876 556 819 c 0
 556 762 571 679 600 570 c 1
 629 679 644 762 644 819 c 0
 644 876 629 905 600 905 c 1
600 -125 m 1
 554 -125 524 -99 524 -23 c 0
 524 43 546 147 600 305 c 1
 654 147 676 43 676 -23 c 0
 676 -99 646 -125 600 -125 c 1
600 -105 m 1
 629 -105 644 -76 644 -19 c 0
 644 38 629 121 600 230 c 1
 571 121 556 38 556 -19 c 0
 556 -76 571 -105 600 -105 c 1
545 400 m 0
 545 370 570 345 600 345 c 0
 630 345 655 370 655 400 c 0
 655 430 630 455 600 455 c 0
 570 455 545 430 545 400 c 0
515 400 m 0
 515 447 553 485 600 485 c 0
 647 485 685 447 685 400 c 0
 685 353 647 315 600 315 c 0
 553 315 515 353 515 400 c 0
1200 -105 m 1
 1146 53 1124 157 1124 223 c 0
 1124 299 1154 325 1200 325 c 1
 1200 305 l 1
 1171 305 1156 276 1156 219 c 0
 1156 162 1171 79 1200 -30 c 1
 1200 -105 l 1
0 -105 m 1
 0 -30 l 1
 29 79 44 162 44 219 c 0
 44 276 29 305 0 305 c 1
 0 325 l 1
 46 325 76 299 76 223 c 0
 76 157 54 53 0 -105 c 1
95 1000 m 1
 170 1000 l 1
 279 971 362 956 419 956 c 0
 476 956 505 971 505 1000 c 1
 525 1000 l 1
 525 954 499 924 423 924 c 0
 357 924 253 946 95 1000 c 1
1105 1000 m 1
 947 946 843 924 777 924 c 0
 701 924 675 954 675 1000 c 1
 695 1000 l 1
 695 971 724 956 781 956 c 0
 838 956 921 971 1030 1000 c 1
 1105 1000 l 1
1200 -115 m 1
 1200 -145 l 0
 1170 -145 1145 -170 1145 -200 c 0
 1115 -200 l 1
 1115 -153 1153 -115 1200 -115 c 1
0 -115 m 1
 47 -115 85 -153 85 -200 c 1
 55 -200 l 0
 55 -170 30 -145 0 -145 c 0
 0 -115 l 1
0 915 m 1
 0 945 l 0
 30 945 55 970 55 1000 c 0
 85 1000 l 1
 85 953 47 915 0 915 c 1
1200 905 m 1
 1200 830 l 1
 1171 721 1156 638 1156 581 c 0
 1156 524 1171 495 1200 495 c 1
 1200 475 l 1
 1154 475 1124 501 1124 577 c 0
 1124 643 1146 747 1200 905 c 1
1200 915 m 1
 1153 915 1115 953 1115 1000 c 1
 1145 1000 l 0
 1145 970 1170 945 1200 945 c 0
 1200 915 l 1
95 -200 m 1
 253 -146 357 -124 423 -124 c 0
 499 -124 525 -154 525 -200 c 1
 505 -200 l 1
 505 -171 476 -156 419 -156 c 0
 362 -156 279 -171 170 -200 c 1
 95 -200 l 1
0 905 m 1
 54 747 76 643 76 577 c 0
 76 501 46 475 0 475 c 1
 0 495 l 1
 29 495 44 524 44 581 c 0
 44 638 29 721 0 830 c 1
 0 905 l 1
1105 -200 m 1
 1030 -200 l 1
 921 -171 838 -156 781 -156 c 0
 724 -156 695 -171 695 -200 c 1
 675 -200 l 1
 675 -154 701 -124 777 -124 c 0
 843 -124 947 -146 1105 -200 c 1
EndSplineSet
Validated: 1
EndChar

StartChar: g
Encoding: 103 103 44
Width: 1200
Flags: HMW
LayerCount: 2
Fore
SplineSet
1125 400 m 1
 1125 354 1099 324 1023 324 c 0
 957 324 853 346 695 400 c 1
 853 454 957 476 1023 476 c 0
 1099 476 1125 446 1125 400 c 1
1105 400 m 1
 1105 429 1076 444 1019 444 c 0
 962 444 879 429 770 400 c 1
 879 371 962 356 1019 356 c 0
 1076 356 1105 371 1105 400 c 1
75 400 m 1
 75 446 101 476 177 476 c 0
 243 476 347 454 505 400 c 1
 347 346 243 324 177 324 c 0
 101 324 75 354 75 400 c 1
95 400 m 1
 95 371 124 356 181 356 c 0
 238 356 321 371 430 400 c 1
 321 429 238 444 181 444 c 0
 124 444 95 429 95 400 c 1
600 925 m 5
 646 925 676 899 676 823 c 4
 676 757 654 653 600 495 c 5
 546 653 524 757 524 823 c 4
 524 899 554 925 600 925 c 5
600 905 m 5
 571 905 556 876 556 819 c 4
 556 762 571 679 600 570 c 5
 629 679 644 762 644 819 c 4
 644 876 629 905 600 905 c 5
600 -125 m 1
 554 -125 524 -99 524 -23 c 0
 524 43 546 147 600 305 c 1
 654 147 676 43 676 -23 c 0
 676 -99 646 -125 600 -125 c 1
600 -105 m 1
 629 -105 644 -76 644 -19 c 0
 644 38 629 121 600 230 c 1
 571 121 556 38 556 -19 c 0
 556 -76 571 -105 600 -105 c 1
1200 -105 m 1
 1146 53 1124 157 1124 223 c 0
 1124 299 1154 325 1200 325 c 1
 1200 305 l 1
 1171 305 1156 276 1156 219 c 0
 1156 162 1171 79 1200 -30 c 1
 1200 -105 l 1
0 -105 m 1
 0 -30 l 1
 29 79 44 162 44 219 c 0
 44 276 29 305 0 305 c 1
 0 325 l 1
 46 325 76 299 76 223 c 0
 76 157 54 53 0 -105 c 1
95 1000 m 1
 170 1000 l 1
 279 971 362 956 419 956 c 0
 476 956 505 971 505 1000 c 1
 525 1000 l 1
 525 954 499 924 423 924 c 0
 357 924 253 946 95 1000 c 1
1105 1000 m 1
 947 946 843 924 777 924 c 0
 701 924 675 954 675 1000 c 1
 695 1000 l 1
 695 971 724 956 781 956 c 0
 838 956 921 971 1030 1000 c 1
 1105 1000 l 1
1200 -115 m 1
 1200 -145 l 0
 1170 -145 1145 -170 1145 -200 c 0
 1115 -200 l 1
 1115 -153 1153 -115 1200 -115 c 1
0 -115 m 1
 47 -115 85 -153 85 -200 c 1
 55 -200 l 0
 55 -170 30 -145 0 -145 c 0
 0 -115 l 1
0 915 m 1
 0 945 l 0
 30 945 55 970 55 1000 c 0
 85 1000 l 1
 85 953 47 915 0 915 c 1
545 400 m 0
 545 370 570 345 600 345 c 0
 630 345 655 370 655 400 c 0
 655 430 630 455 600 455 c 0
 570 455 545 430 545 400 c 0
515 400 m 0
 515 447 553 485 600 485 c 0
 647 485 685 447 685 400 c 0
 685 353 647 315 600 315 c 0
 553 315 515 353 515 400 c 0
1200 905 m 1
 1200 830 l 1
 1171 721 1156 638 1156 581 c 0
 1156 524 1171 495 1200 495 c 1
 1200 475 l 1
 1154 475 1124 501 1124 577 c 0
 1124 643 1146 747 1200 905 c 1
1200 915 m 1
 1153 915 1115 953 1115 1000 c 1
 1145 1000 l 0
 1145 970 1170 945 1200 945 c 0
 1200 915 l 1
95 -200 m 1
 253 -146 357 -124 423 -124 c 0
 499 -124 525 -154 525 -200 c 1
 505 -200 l 1
 505 -171 476 -156 419 -156 c 0
 362 -156 279 -171 170 -200 c 1
 95 -200 l 1
0 905 m 1
 54 747 76 643 76 577 c 0
 76 501 46 475 0 475 c 1
 0 495 l 1
 29 495 44 524 44 581 c 0
 44 638 29 721 0 830 c 1
 0 905 l 1
1105 -200 m 1
 1030 -200 l 1
 921 -171 838 -156 781 -156 c 0
 724 -156 695 -171 695 -200 c 1
 675 -200 l 1
 675 -154 701 -124 777 -124 c 0
 843 -124 947 -146 1105 -200 c 1
EndSplineSet
Validated: 1
EndChar
